<svg width="22" height="22" viewBox="0 0 22 22" fill="none" xmlns="http://www.w3.org/2000/svg">
<path d="M2 2H3.05862L4.11765 4.11765M4.11765 4.11765H17.7655C18.9575 4.11765 19.8849 5.15378 19.7532 6.33851L19.1389 11.8679C19.0263 12.8808 18.1702 13.6471 17.1511 13.6471H6.11765C5.01308 13.6471 4.11765 12.7516 4.11765 11.6471V4.11765ZM16.8235 18.9412C16.8235 19.5259 16.3495 20 15.7647 20C15.1799 20 14.7059 19.5259 14.7059 18.9412C14.7059 18.3564 15.1799 17.8824 15.7647 17.8824C16.3495 17.8824 16.8235 18.3564 16.8235 18.9412ZM7.29412 18.9412C7.29412 19.5259 6.82007 20 6.23529 20C5.65052 20 5.17647 19.5259 5.17647 18.9412C5.17647 18.3564 5.65052 17.8824 6.23529 17.8824C6.82007 17.8824 7.29412 18.3564 7.29412 18.9412Z" stroke="#F3F3F3" stroke-linecap="round" stroke-linejoin="round"/>
</svg>
