<svg width="18" height="18" viewBox="0 0 18 18" fill="none" xmlns="http://www.w3.org/2000/svg">
<g clip-path="url(#clip0_2001_42)">
<path d="M8.63087 3.19862C8.7256 3.30228 8.85956 3.36134 8.99998 3.36134C9.14041 3.36134 9.27437 3.30228 9.3691 3.19862C10.5495 1.90685 11.6644 1.33334 12.6619 1.28587C13.6477 1.23897 14.641 1.70068 15.5998 2.74999C16.5211 3.75823 16.7926 4.85035 16.7004 5.96033C16.6064 7.09203 16.1318 8.25349 15.5305 9.35037C15.2508 9.86045 14.6928 10.5829 13.9834 11.4012C13.2815 12.2109 12.4563 13.0863 11.6656 13.8959C10.8755 14.7048 10.1231 15.4444 9.56807 15.982C9.34161 16.2014 9.14815 16.3869 8.99856 16.5297C8.85095 16.3899 8.66078 16.2089 8.43842 15.995C7.88785 15.4654 7.14088 14.7354 6.35448 13.933C5.56744 13.13 4.74437 12.2581 4.0402 11.4441C3.3293 10.6223 2.76344 9.88652 2.46949 9.35037C1.86812 8.25349 1.39354 7.09203 1.29953 5.96033C1.20733 4.85035 1.47888 3.75823 2.40017 2.74999C3.35899 1.70067 4.35227 1.23897 5.33803 1.28587C6.33556 1.33334 7.45051 1.90685 8.63087 3.19862Z" stroke="#F3F3F3" stroke-linecap="round" stroke-linejoin="round"/>
</g>
<defs>
<clipPath id="clip0_2001_42">
<rect width="18" height="18" fill="white"/>
</clipPath>
</defs>
</svg>
