<svg width="27" height="25" viewBox="0 0 27 25" fill="none" xmlns="http://www.w3.org/2000/svg">
<rect x="0.4" y="10.2785" width="26.2052" height="13.7412" stroke="#F3F3F3" stroke-width="0.8"/>
<path d="M0.283936 20.17L26.7009 16.2563" stroke="#F3F3F3" stroke-width="0.8"/>
<path d="M0.283936 18.7023L26.7009 14.7887" stroke="#F3F3F3" stroke-width="0.8"/>
<path d="M12.3978 9.99889C12.098 9.86073 11.8528 9.33575 11.8528 8.34104C11.8528 7.34633 12.752 7.01476 12.752 7.01476M12.3978 9.99889C12.6702 9.99889 13.6838 9.99889 14.1416 9.99889C14.36 9.99889 14.6463 10.0304 14.7592 9.84535M12.3978 9.99889C10.3315 9.99889 4.42786 8.95981 4.42786 8.95981C5.01822 5.09422 8.85558 1.58026 8.85558 1.58026L12.752 7.01476M12.752 7.01476H14.1416M14.1416 7.01476C14.3868 7.15292 14.8773 7.61159 14.8773 8.34104C14.8773 8.90489 14.9422 9.5455 14.7592 9.84535M14.1416 7.01476L17.9835 1.87544C19.4222 2.47227 21.6483 7.32959 22.1388 8.95981C22.1388 8.95981 17.1207 9.55017 14.7592 9.84535" stroke="#F3F3F3" stroke-width="0.8"/>
<path d="M15.6447 7.48389L17.4158 6.30316M15.6447 8.66462L18.8917 8.07425M11.217 7.48389L9.4459 6.30316M11.217 8.66462L7.6748 8.07425" stroke="#F3F3F3" stroke-width="0.8"/>
</svg>
