<svg width="23" height="24" viewBox="0 0 23 24" fill="none" xmlns="http://www.w3.org/2000/svg">
<path d="M11.1309 4.49343C11.2256 4.5971 11.3596 4.65615 11.5 4.65615C11.6404 4.65615 11.7744 4.5971 11.8691 4.49343C13.3911 2.82781 14.8476 2.06737 16.1726 2.00433C17.4857 1.94185 18.7921 2.55933 20.0356 3.92019C21.2416 5.23998 21.5986 6.6748 21.4779 8.12748C21.3554 9.60188 20.7385 11.106 19.9663 12.5145C19.6012 13.1803 18.8795 14.1131 17.9726 15.1592C17.0732 16.1967 16.0168 17.3175 15.0054 18.3529C13.9947 19.3876 13.0324 20.3337 12.3225 21.0212C11.982 21.351 11.6999 21.6211 11.4986 21.8128C11.2994 21.6247 11.0214 21.3606 10.6862 21.0381C9.982 20.3608 9.02651 19.427 8.02044 18.4005C7.01374 17.3734 5.95984 16.257 5.05746 15.2138C4.14834 14.1629 3.41687 13.2134 3.03369 12.5145C2.26152 11.106 1.6446 9.60188 1.52212 8.12748C1.40145 6.67479 1.7584 5.23998 2.96437 3.92019C4.20787 2.55932 5.5143 1.94185 6.82744 2.00433C8.15235 2.06737 9.60891 2.82781 11.1309 4.49343Z" stroke="#F3F3F3" stroke-linecap="round" stroke-linejoin="round"/>
</svg>
