<svg width="14" height="18" viewBox="0 0 14 18" fill="none" xmlns="http://www.w3.org/2000/svg">
<path d="M5.25004 1.91667H10.5C11.1417 1.91667 11.6667 2.55417 11.6667 3.33333V14.6667C11.6667 15.4458 11.1417 16.0833 10.5 16.0833H5.25004C4.60837 16.0833 4.08337 15.4458 4.08337 14.6667V13.25H5.25004V14.6667H10.5V3.33333H5.25004V4.75H4.08337V3.33333C4.08337 2.55417 4.60837 1.91667 5.25004 1.91667Z" fill="#F3F3F3"/>
<mask id="path-2-inside-1_2001_51" fill="white">
<path d="M5.88583 11.5429L6.70833 12.5417L9.625 9L6.70833 5.45833L5.88583 6.45708L7.39083 8.29167H1.75V9.70833H7.39083L5.88583 11.5429Z"/>
</mask>
<path d="M5.88583 11.5429L6.70833 12.5417L9.625 9L6.70833 5.45833L5.88583 6.45708L7.39083 8.29167H1.75V9.70833H7.39083L5.88583 11.5429Z" fill="#F3F3F3"/>
<path d="M5.88583 11.5429L4.33956 10.2744L3.29695 11.5454L4.34197 12.8143L5.88583 11.5429ZM6.70833 12.5417L5.16447 13.8131L6.70833 15.6878L8.25219 13.8131L6.70833 12.5417ZM9.625 9L11.1689 10.2714L12.2159 9L11.1689 7.72858L9.625 9ZM6.70833 5.45833L8.25219 4.18692L6.70833 2.31223L5.16447 4.18692L6.70833 5.45833ZM5.88583 6.45708L4.34197 5.18567L3.29695 6.45463L4.33956 7.72556L5.88583 6.45708ZM7.39083 8.29167V10.2917H11.6184L8.9371 7.02318L7.39083 8.29167ZM1.75 8.29167V6.29167H-0.25V8.29167H1.75ZM1.75 9.70833H-0.25V11.7083H1.75V9.70833ZM7.39083 9.70833L8.9371 10.9768L11.6184 7.70833H7.39083V9.70833ZM4.34197 12.8143L5.16447 13.8131L8.25219 11.2703L7.42969 10.2715L4.34197 12.8143ZM8.25219 13.8131L11.1689 10.2714L8.08114 7.72858L5.16447 11.2703L8.25219 13.8131ZM11.1689 7.72858L8.25219 4.18692L5.16447 6.72975L8.08114 10.2714L11.1689 7.72858ZM5.16447 4.18692L4.34197 5.18567L7.42969 7.7285L8.25219 6.72975L5.16447 4.18692ZM4.33956 7.72556L5.84456 9.56015L8.9371 7.02318L7.4321 5.1886L4.33956 7.72556ZM7.39083 6.29167H1.75V10.2917H7.39083V6.29167ZM-0.25 8.29167V9.70833H3.75V8.29167H-0.25ZM1.75 11.7083H7.39083V7.70833H1.75V11.7083ZM5.84456 8.43985L4.33956 10.2744L7.4321 12.8114L8.9371 10.9768L5.84456 8.43985Z" fill="#F3F3F3" mask="url(#path-2-inside-1_2001_51)"/>
</svg>
