<svg width="164" height="74" viewBox="0 0 164 74" fill="none" xmlns="http://www.w3.org/2000/svg">
<path d="M136.085 66.1962H136.816L129.376 45.4768H126.952L120.087 66.1962H123.529L129.478 47.8498L136.085 66.1962ZM22.9884 46.7946L20.4717 45.1204L20.4578 50.1009L22.9838 51.7798L22.9884 46.7946ZM143.112 49.1254C143.112 52.1128 147.077 53.2337 149.26 54.0684C152.203 55.1987 154.891 56.9151 154.891 59.9869C154.891 64.536 151.296 66.3979 147.442 66.3979C145.027 66.3979 142.122 65.9054 140.165 64.2593L141.863 61.4361C142.862 64.0202 144.93 65.7741 147.442 65.7741C149.686 65.7741 152.42 64.536 152.42 61.7644C152.42 58.4675 148.872 57.7968 146.503 56.8495C143.824 55.7755 140.933 54.1904 140.933 50.5933C140.933 46.3538 144.255 45.2048 147.646 45.2048C149.834 45.2048 151.888 45.594 153.952 46.3631L152.823 48.8253C151.782 46.879 149.524 45.8285 147.586 45.8285C145.661 45.8332 143.112 46.6352 143.112 49.1254ZM111.255 66.1962V45.4205H114.715V66.1962H111.255ZM102.312 66.1962L96.0896 55.874H95.0071V55.2503H97.1537C99.6195 55.2503 101.396 53.5807 101.396 50.6355C101.396 47.7607 99.6103 46.0489 97.1537 46.0489H93.4526C93.4526 52.7647 93.4526 59.4851 93.4526 66.2009H89.9967V45.4252H98.3242C100.984 45.4252 103.816 47.3527 103.816 50.6355C103.816 53.6511 101.965 55.7099 99.3281 55.8787L105.564 66.2009H102.312V66.1962ZM80.9151 66.1962L74.6973 55.874H73.6147V55.2503H75.7614C78.2272 55.2503 80.0038 53.5807 80.0038 50.6355C80.0038 47.7607 78.218 46.0489 75.7614 46.0489H72.0603C72.0603 52.7647 72.0603 59.4851 72.0603 66.2009H68.6044V45.4252H76.9318C79.5874 45.4252 82.4233 47.3527 82.4233 50.6355C82.4233 53.6511 80.5728 55.7099 77.9358 55.8787L84.1767 66.2009H80.9151V66.1962ZM52.8239 46.0395V55.3066H60.6239V55.9303H52.8239V65.5725H62.6826V66.1962H49.3633V45.4205H62.6826V46.0442H52.8239V46.0395ZM43.895 45.4205V46.0442H37.6401V66.1962H34.1796V46.0395H27.9248V45.4158H43.895V45.4205ZM22.9884 65.5725V66.1962H9.66913V45.4205H13.125V65.5725H22.9884Z" fill="#F3F3F3"/>
<path fill-rule="evenodd" clip-rule="evenodd" d="M73.3002 34.1134H83.5291V24.4291H80.707V33.1098H77.6767L73.4898 8.29153H68.8912L73.3002 34.1134ZM86.7906 34.1134H91.2551L95.664 8.29153H80.707V17.7274H83.5291V9.29045H90.9682L86.7906 34.1134Z" fill="#F3F3F3"/>
</svg>
