<svg width="19" height="18" viewBox="0 0 19 18" fill="none" xmlns="http://www.w3.org/2000/svg">
<path fill-rule="evenodd" clip-rule="evenodd" d="M15.8154 8.31915C15.8154 12.3515 12.5089 15.6383 8.40771 15.6383C4.30654 15.6383 1 12.3515 1 8.31915C1 4.28685 4.30654 1 8.40771 1C12.5089 1 15.8154 4.28685 15.8154 8.31915ZM14.2385 14.3127C12.7269 15.7528 10.6718 16.6383 8.40771 16.6383C3.76426 16.6383 0 12.9137 0 8.31915C0 3.72461 3.76426 0 8.40771 0C13.0512 0 16.8154 3.72461 16.8154 8.31915C16.8154 10.3155 16.1047 12.1477 14.92 13.5814L18.8371 17.1362C19.0417 17.3219 19.0554 17.6365 18.8678 17.8389C18.6801 18.0413 18.3622 18.0549 18.1576 17.8693L14.2385 14.3127Z" fill="white"/>
</svg>
